<?xml version="1.0" encoding="UTF-8"?> <svg xmlns="http://www.w3.org/2000/svg" width="56" height="56" viewBox="0 0 56 56" fill="none"><g id="Logo - Illustration - 200x200 1" clip-path="url(#clip0_1162_24400)"><path id="Vector" d="M39.914 13.4988L39.8188 10.9424C39.8188 10.9424 33.334 11.0852 28.224 15.4868L26.8016 13.3588C26.8016 13.3588 21.3668 17.08 19.04 22.7332L21.966 24.5756L16.548 21.9912C15.9572 23.24 13.468 28.8876 14.3528 33.9472L11.7488 33.8044C11.7488 33.8044 12.1044 55.3168 35.4144 53.8748C35.4144 53.8748 22.0668 51.3184 21.4144 37.3072C20.762 23.296 38.2648 15.4392 49.2464 21.8764L52.4636 15.1564C48.627 13.0874 44.1648 12.4976 39.9224 13.4988" fill="#1ABFA6"></path><g id="Clip path group"><mask id="mask0_1162_24400" style="mask-type:luminance" maskUnits="userSpaceOnUse" x="19" y="26" width="6" height="19"><g id="clip-path"><path id="SVGID" d="M23.016 44.1896C18.536 34.034 24.7772 26.9192 24.7772 26.9192C14.0224 33.124 23.016 44.1896 23.016 44.1896Z" fill="white"></path></g></mask><g mask="url(#mask0_1162_24400)"><g id="Group"><path id="Vector_2" d="M24.7771 26.9192H14.0223V44.1896H24.7771V26.9192Z" fill="url(#paint0_linear_1162_24400)"></path></g></g></g><g id="Clip path group_2"><mask id="mask1_1162_24400" style="mask-type:luminance" maskUnits="userSpaceOnUse" x="-15" y="-33" width="233" height="122"><g id="clip-path-2"><path id="SVGID_2" d="M217.56 -32.8916H-14.84V88.76H217.56V-32.8916Z" fill="white"></path></g></mask><g mask="url(#mask1_1162_24400)"><g id="Group_2"><path id="Vector_3" d="M8.91246 40.4797C9.95125 40.4803 10.9665 40.7888 11.83 41.3664C12.6934 41.9439 13.3663 42.7644 13.7634 43.7243C14.1606 44.6842 14.2642 45.7403 14.0612 46.759C13.8582 47.7778 13.3577 48.7135 12.623 49.4478C11.8882 50.1822 10.9523 50.6822 9.9334 50.8846C8.91454 51.0871 7.85852 50.9829 6.89885 50.5852C5.93919 50.1876 5.11898 49.5143 4.54192 48.6505C3.96486 47.7868 3.65686 46.7713 3.65686 45.7325C3.65686 45.0425 3.79282 44.3592 4.05697 43.7217C4.32113 43.0842 4.7083 42.5051 5.19636 42.0173C5.68442 41.5295 6.26382 41.1426 6.90144 40.8788C7.53906 40.615 8.22242 40.4794 8.91246 40.4797Z" fill="#00257D"></path><path id="Vector_4" d="M15.4673 11.228C16.5061 11.2286 17.5214 11.5371 18.3848 12.1146C19.2483 12.6922 19.9211 13.5127 20.3182 14.4726C20.7154 15.4325 20.819 16.4886 20.616 17.5073C20.413 18.5261 19.9125 19.4618 19.1778 20.1961C18.443 20.9304 17.5071 21.4304 16.4882 21.6329C15.4693 21.8354 14.4133 21.7312 13.4537 21.3335C12.494 20.9359 11.6738 20.2626 11.0967 19.3988C10.5197 18.5351 10.2117 17.5196 10.2117 16.4808C10.2117 15.7908 10.3476 15.1075 10.6118 14.47C10.8759 13.8325 11.2631 13.2534 11.7512 12.7655C12.2392 12.2777 12.8186 11.8909 13.4563 11.6271C14.0939 11.3633 14.7772 11.2277 15.4673 11.228Z" fill="#0D75DB"></path><path id="Vector_5" d="M28.0644 2.99048C29.104 2.98993 30.1204 3.29769 30.9851 3.87485C31.8497 4.452 32.5238 5.27262 32.922 6.23291C33.3202 7.19319 33.4247 8.25001 33.2222 9.26968C33.0197 10.2893 32.5194 11.2261 31.7845 11.9614C31.0496 12.6966 30.1132 13.1975 29.0936 13.4005C28.074 13.6035 27.0172 13.4996 26.0567 13.1019C25.0962 12.7042 24.2752 12.0306 23.6976 11.1662C23.12 10.3019 22.8116 9.28566 22.8116 8.24608C22.8113 7.55604 22.9469 6.87268 23.2107 6.23506C23.4745 5.59744 23.8614 5.01804 24.3492 4.52998C24.837 4.04191 25.4162 3.65475 26.0536 3.39059C26.6911 3.12644 27.3744 2.99048 28.0644 2.99048Z" fill="#178FB2"></path><path id="Vector_6" d="M43.54 1.92651C44.5789 1.92651 45.5945 2.23458 46.4583 2.81177C47.3221 3.38896 47.9954 4.20933 48.393 5.16915C48.7906 6.12898 48.8946 7.18514 48.6919 8.20408C48.4892 9.22303 47.9889 10.159 47.2543 10.8936C46.5197 11.6282 45.5837 12.1285 44.5648 12.3312C43.5459 12.5339 42.4897 12.4298 41.5299 12.0323C40.57 11.6347 39.7497 10.9614 39.1725 10.0976C38.5953 9.23379 38.2872 8.21822 38.2872 7.17931C38.2872 5.78618 38.8406 4.45011 39.8257 3.46502C40.8108 2.47993 42.1469 1.92651 43.54 1.92651Z" fill="#1ABFA6"></path></g></g></g><g id="Clip path group_3"><mask id="mask2_1162_24400" style="mask-type:luminance" maskUnits="userSpaceOnUse" x="20" y="22" width="7" height="14"><g id="clip-path-3"><path id="SVGID_3" d="M20.72 28.5096C20.6723 30.824 20.9093 33.1355 21.4256 35.392C21.622 32.7068 22.5284 30.1219 24.052 27.902C24.6225 25.9756 25.4563 24.1373 26.53 22.4392C23.6124 23.52 20.776 23.7496 20.72 28.5096Z" fill="white"></path></g></mask><g mask="url(#mask2_1162_24400)"><g id="Group_3"><path id="Vector_7" d="M26.53 22.4392H20.6892V35.3948H26.53V22.4392Z" fill="url(#paint1_linear_1162_24400)"></path></g></g></g><g id="Clip path group_4"><mask id="mask3_1162_24400" style="mask-type:luminance" maskUnits="userSpaceOnUse" x="-15" y="-33" width="233" height="122"><g id="clip-path-2_2"><path id="SVGID_4" d="M217.56 -32.8916H-14.84V88.76H217.56V-32.8916Z" fill="white"></path></g></mask><g mask="url(#mask3_1162_24400)"><g id="Group_4"><path id="Vector_8" d="M35.4172 53.875C32.8316 53.2646 30.3969 52.1358 28.2604 50.557C17.598 44.957 14.3528 33.9474 14.3528 33.9474L11.7488 33.8074C11.7488 33.8074 12.1072 55.317 35.4172 53.875Z" fill="#00257D"></path><path id="Vector_9" d="M22.9124 43.96C18.4324 35.6244 18.8944 23.1952 18.8972 23.1112L16.548 21.9912C15.9572 23.24 13.468 28.8876 14.3528 33.9444L13.8684 33.9192C16.5592 44.8616 23.7412 48.72 27.5884 50.022C25.5705 48.4013 23.9677 46.3233 22.9124 43.96Z" fill="#004CAC"></path><path id="Vector_10" d="M39.914 13.4989L39.7824 10.9453C39.284 10.9621 33.124 11.2673 28.224 15.4869L30.0692 18.7069C32.0572 16.1505 39.914 13.4989 39.914 13.4989Z" fill="#178FB2"></path><path id="Vector_11" d="M23.016 44.1898C22.8144 43.7502 22.624 43.291 22.456 42.8122C20.3 38.4302 20.748 32.2926 20.748 32.2926L21.406 35.885C20.7872 27.6278 30.0692 18.707 30.0692 18.707L28.0644 15.249C23.3604 19.841 21.9744 24.5758 21.9744 24.5758L18.8944 23.1086C15.0556 34.0286 20.1544 41.2218 23.0132 44.1898" fill="#0D294F"></path><path id="Vector_12" d="M11.7516 33.8044L14.6972 33.9472L17.612 42.532L14.4844 41.0228L13.692 39.3036" fill="#00257D"></path><path id="Vector_13" d="M24.052 27.905C24.6082 27.0882 25.235 26.3218 25.9252 25.6146C31.4216 18.3542 40.1492 18.1386 40.1492 18.1386L39.9112 13.499C28.7504 15.6802 25.0964 24.3378 24.052 27.905Z" fill="#17597C"></path></g></g></g><g id="Clip path group_5"><mask id="mask4_1162_24400" style="mask-type:luminance" maskUnits="userSpaceOnUse" x="-15" y="-33" width="233" height="122"><g id="clip-path-2_3"><path id="SVGID_5" d="M217.56 -32.8916H-14.84V88.76H217.56V-32.8916Z" fill="white"></path></g></mask><g mask="url(#mask4_1162_24400)"><g id="Group_5"><path id="Vector_14" d="M21.9744 24.5757C23.1071 20.9908 25.277 17.8221 28.21 15.4701L26.81 13.3589C26.81 13.3589 21.126 17.2369 18.9 23.1029L21.9744 24.5757Z" fill="#0D75DB"></path></g></g></g><g id="Clip path group_6"><mask id="mask5_1162_24400" style="mask-type:luminance" maskUnits="userSpaceOnUse" x="39" y="10" width="1" height="1"><g id="clip-path-7"><path id="SVGID_6" d="M39.312 10.9817L39.7824 10.9453C39.7824 10.9453 39.6144 10.9453 39.312 10.9817Z" fill="white"></path></g></mask><g mask="url(#mask5_1162_24400)"><g id="Group_6"><path id="Vector_15" d="M39.7824 10.9453H39.312V10.9817H39.7824V10.9453Z" fill="url(#paint2_linear_1162_24400)"></path></g></g></g><g id="Clip path group_7"><mask id="mask6_1162_24400" style="mask-type:luminance" maskUnits="userSpaceOnUse" x="-15" y="-33" width="233" height="122"><g id="clip-path-2_4"><path id="SVGID_7" d="M217.56 -32.8916H-14.84V88.76H217.56V-32.8916Z" fill="white"></path></g></mask><g mask="url(#mask6_1162_24400)"><g id="Group_7"><path id="Vector_16" d="M14.3556 33.9474H19.1828C19.1828 33.9474 17.9676 43.0642 28.0644 50.4002C28.0644 50.4002 16.8168 47.8998 14.3444 33.939" fill="#0D294F"></path><path id="Vector_17" d="M17.7856 33.9473C18.1794 36.2496 18.9928 38.46 20.1852 40.4685C18.8104 36.7333 19.1828 33.9473 19.1828 33.9473H17.7856Z" fill="#0D294F"></path><path id="Vector_18" d="M21.9744 24.5757L23.0412 25.1553C23.0412 25.1553 20.1208 31.2873 20.72 35.3949C20.72 35.3949 19.4544 31.3237 21.9744 24.5757Z" fill="#0F1C2E"></path><path id="Vector_19" d="M8.43639 25.1553C9.4753 25.1553 10.4909 25.4633 11.3547 26.0405C12.2185 26.6177 12.8918 27.4381 13.2893 28.3979C13.6869 29.3577 13.7909 30.4139 13.5883 31.4328C13.3856 32.4518 12.8853 33.3877 12.1507 34.1224C11.4161 34.857 10.4801 35.3573 9.46116 35.5599C8.44222 35.7626 7.38606 35.6586 6.42623 35.261C5.46641 34.8635 4.64604 34.1902 4.06885 33.3264C3.49167 32.4626 3.18359 31.447 3.18359 30.4081C3.18359 29.0149 3.73701 27.6789 4.7221 26.6938C5.70719 25.7087 7.04326 25.1553 8.43639 25.1553Z" fill="#004CAC"></path></g></g></g></g><defs><linearGradient id="paint0_linear_1162_24400" x1="19.7411" y1="35.3259" x2="25.034" y2="35.3259" gradientUnits="userSpaceOnUse"><stop stop-color="#0079CC"></stop><stop offset="1" stop-color="#00369A"></stop></linearGradient><linearGradient id="paint1_linear_1162_24400" x1="20.0368" y1="29.3499" x2="25.8588" y2="29.3499" gradientUnits="userSpaceOnUse"><stop stop-color="#0079CC"></stop><stop offset="1" stop-color="#00369A"></stop></linearGradient><linearGradient id="paint2_linear_1162_24400" x1="40.1935" y1="10.162" x2="40.6646" y2="10.162" gradientUnits="userSpaceOnUse"><stop stop-color="#0079CC"></stop><stop offset="1" stop-color="#00369A"></stop></linearGradient><clipPath id="clip0_1162_24400"><rect width="56" height="56" fill="white"></rect></clipPath></defs></svg>
 