<svg xmlns="http://www.w3.org/2000/svg" width="24" height="19" viewBox="0 0 24 19" fill="none">
  <path d="M20.1338 4.97143H19.3724V1.42857C19.3724 0.642857 18.6357 0 17.717 0H5.9973C5.0786 0 4.34198 0.642857 4.34198 1.42857V4.97143H3.58052C3.25774 4.97143 2.94322 5.02857 2.64526 5.1L4.34198 6.43571L10.6239 11.3929C10.9633 11.6571 11.402 11.8071 11.8572 11.8071C12.3124 11.8071 12.751 11.6571 13.0821 11.3929L19.3724 6.43571L21.0691 5.1C20.7711 5.02857 20.4566 4.97143 20.1338 4.97143ZM11.9358 7.15214H8.46871C8.05736 7.15214 7.72381 6.86429 7.72381 6.50929C7.72381 6.15429 8.05736 5.86643 8.46871 5.86643H11.9358C12.3471 5.86643 12.6807 6.15429 12.6807 6.50929C12.6807 6.86429 12.3471 7.15214 11.9358 7.15214ZM15.2465 4.59286H8.46871C8.05736 4.59286 7.72381 4.305 7.72381 3.95C7.72381 3.595 8.05736 3.30714 8.46871 3.30714H15.2465C15.6578 3.30714 15.9914 3.595 15.9914 3.95C15.9914 4.305 15.6578 4.59286 15.2465 4.59286Z" fill="black" fill-opacity="0.5"/>
  <path d="M16.6683 13.7822C16.3645 13.5429 16.3422 13.1365 16.6195 12.8743C16.8959 12.6129 17.3668 12.5929 17.6714 12.8322L22.9056 16.9515C23.2441 16.5036 23.4444 15.9715 23.4444 15.4001V7.82863C23.4444 7.02148 23.0554 6.29291 22.4264 5.77148L19.3723 8.17863L14.0918 12.3429C12.8254 13.3429 10.8887 13.3429 9.62238 12.3429L4.34188 8.17863L1.2878 5.77148C0.658778 6.29291 0.269775 7.02148 0.269775 7.82863V15.4001C0.269775 15.9715 0.47007 16.5036 0.807757 16.9515L6.04191 12.8322C6.34649 12.5929 6.8166 12.6122 7.09387 12.8743C7.37114 13.1365 7.34962 13.5436 7.04504 13.7822L1.88703 17.8422C2.38446 18.0993 2.95886 18.2572 3.58043 18.2572H20.1337C20.7553 18.2572 21.3297 18.0993 21.8271 17.8422L16.6683 13.7822Z" fill="black" fill-opacity="0.5"/>
</svg>