<svg xmlns="http://www.w3.org/2000/svg" width="20" height="24" viewBox="0 0 20 24" fill="none">
  <path d="M9.3258 8.08984H7.58423V9.8876H9.3258V8.08984Z" fill="black" fill-opacity="0.5"/>
  <path d="M4.2135 8.08984H2.47192V9.8876H4.2135V8.08984Z" fill="black" fill-opacity="0.5"/>
  <path d="M9.3258 13.764H7.58423V15.5618H9.3258V13.764Z" fill="black" fill-opacity="0.5"/>
  <path d="M9.83148 0.698146C9.82968 0.515735 9.75728 0.341115 9.62948 0.210941C9.50169 0.0807672 9.32843 0.00516326 9.14608 0H2.64738C2.27563 0 1.96631 0.326404 1.96631 0.698146V4.83146H9.83148V0.698146ZM7.34007 2.86517H6.34833V3.82882C6.34833 3.94802 6.30098 4.06233 6.21669 4.14662C6.13241 4.23091 6.01809 4.27826 5.89889 4.27826C5.77969 4.27826 5.66538 4.23091 5.58109 4.14662C5.49681 4.06233 5.44945 3.94802 5.44945 3.82882V2.86517H4.45771C4.33851 2.86517 4.2242 2.81782 4.13991 2.73353C4.05563 2.64925 4.00828 2.53493 4.00828 2.41573C4.00828 2.29653 4.05563 2.18222 4.13991 2.09793C4.2242 2.01364 4.33851 1.96629 4.45771 1.96629H5.44945V0.946461C5.44945 0.827262 5.49681 0.712946 5.58109 0.62866C5.66538 0.544374 5.77969 0.497022 5.89889 0.497022C6.01809 0.497022 6.13241 0.544374 6.21669 0.62866C6.30098 0.712946 6.34833 0.827262 6.34833 0.946461V1.96629H7.34007C7.45927 1.96629 7.57359 2.01364 7.65787 2.09793C7.74216 2.18222 7.78951 2.29653 7.78951 2.41573C7.78951 2.53493 7.74216 2.64925 7.65787 2.73353C7.57359 2.81782 7.45927 2.86517 7.34007 2.86517Z" fill="black" fill-opacity="0.5"/>
  <path d="M7.19482 19.4944H4.59886C4.51162 19.4928 4.42495 19.5088 4.34395 19.5412C4.26294 19.5737 4.18924 19.622 4.12717 19.6833C4.0651 19.7446 4.01592 19.8177 3.98251 19.8983C3.9491 19.979 3.93214 20.0654 3.93263 20.1527V23.2584H7.86521V20.1527C7.86523 20.0652 7.84781 19.9786 7.81397 19.8979C7.78013 19.8173 7.73056 19.7442 7.66815 19.6829C7.60573 19.6216 7.53173 19.5733 7.45046 19.541C7.36919 19.5086 7.28228 19.4928 7.19482 19.4944Z" fill="black" fill-opacity="0.5"/>
  <path d="M4.2135 13.764H2.47192V15.5618H4.2135V13.764Z" fill="black" fill-opacity="0.5"/>
  <path d="M20 13.6517H13.0337V16.2922H20V13.6517Z" fill="black" fill-opacity="0.5"/>
  <path d="M19.3026 10.0562H13.0337V12.7528H20V10.7085C20 10.3371 19.6741 10.0562 19.3026 10.0562Z" fill="black" fill-opacity="0.5"/>
  <path d="M20 17.191H13.0337V19.8315H20V17.191Z" fill="black" fill-opacity="0.5"/>
  <path d="M20 20.7303H13.0337V23.2584H20V20.7303Z" fill="black" fill-opacity="0.5"/>
  <path d="M11.446 5.73035H0.69736C0.325843 5.73035 0 6.03181 0 6.40355V23.2584H3.03371V20.1527C3.03335 19.9474 3.07365 19.7442 3.15228 19.5545C3.23091 19.3649 3.34631 19.1928 3.49182 19.048C3.63732 18.9032 3.81006 18.7887 4.00006 18.7111C4.19006 18.6334 4.39356 18.5941 4.59882 18.5955H7.19478C7.40025 18.594 7.60399 18.6332 7.79426 18.7108C7.98453 18.7884 8.15757 18.9029 8.30343 19.0476C8.44928 19.1923 8.56507 19.3645 8.64412 19.5541C8.72318 19.7438 8.76393 19.9472 8.76404 20.1527V23.2584H12.1348V6.40355C12.1313 6.22341 12.057 6.05189 11.9282 5.92597C11.7993 5.80004 11.6261 5.72978 11.446 5.73035ZM5.16854 16.0112C5.16854 16.1304 5.12119 16.2448 5.0369 16.3291C4.95262 16.4133 4.8383 16.4607 4.7191 16.4607H2.02247C1.90327 16.4607 1.78896 16.4133 1.70467 16.3291C1.62039 16.2448 1.57303 16.1304 1.57303 16.0112V13.3146C1.57303 13.1954 1.62039 13.0811 1.70467 12.9968C1.78896 12.9125 1.90327 12.8652 2.02247 12.8652H4.7191C4.8383 12.8652 4.95262 12.9125 5.0369 12.9968C5.12119 13.0811 5.16854 13.1954 5.16854 13.3146V16.0112ZM5.16854 10.3371C5.16854 10.4563 5.12119 10.5706 5.0369 10.6549C4.95262 10.7392 4.8383 10.7865 4.7191 10.7865H2.02247C1.90327 10.7865 1.78896 10.7392 1.70467 10.6549C1.62039 10.5706 1.57303 10.4563 1.57303 10.3371V7.64046C1.57303 7.52126 1.62039 7.40695 1.70467 7.32266C1.78896 7.23838 1.90327 7.19102 2.02247 7.19102H4.7191C4.8383 7.19102 4.95262 7.23838 5.0369 7.32266C5.12119 7.40695 5.16854 7.52126 5.16854 7.64046V10.3371ZM10.2809 16.0112C10.2809 16.1304 10.2335 16.2448 10.1493 16.3291C10.065 16.4133 9.95066 16.4607 9.83146 16.4607H7.13483C7.01563 16.4607 6.90132 16.4133 6.81703 16.3291C6.73274 16.2448 6.68539 16.1304 6.68539 16.0112V13.3146C6.68539 13.1954 6.73274 13.0811 6.81703 12.9968C6.90132 12.9125 7.01563 12.8652 7.13483 12.8652H9.83146C9.95066 12.8652 10.065 12.9125 10.1493 12.9968C10.2335 13.0811 10.2809 13.1954 10.2809 13.3146V16.0112ZM10.2809 10.3371C10.2809 10.4563 10.2335 10.5706 10.1493 10.6549C10.065 10.7392 9.95066 10.7865 9.83146 10.7865H7.13483C7.01563 10.7865 6.90132 10.7392 6.81703 10.6549C6.73274 10.5706 6.68539 10.4563 6.68539 10.3371V7.64046C6.68539 7.52126 6.73274 7.40695 6.81703 7.32266C6.90132 7.23838 7.01563 7.19102 7.13483 7.19102H9.83146C9.95066 7.19102 10.065 7.23838 10.1493 7.32266C10.2335 7.40695 10.2809 7.52126 10.2809 7.64046V10.3371Z" fill="black" fill-opacity="0.5"/>
</svg>
